<svg xmlns="http://www.w3.org/2000/svg" viewBox="0 0 128 128">
  <defs>
    <linearGradient id="grad" x1="0%" y1="0%" x2="100%" y2="100%">
      <stop offset="0%" style="stop-color:#667eea"/>
      <stop offset="100%" style="stop-color:#764ba2"/>
    </linearGradient>
  </defs>
  <rect width="128" height="128" rx="20" fill="url(#grad)"/>
  <path d="M64 28c-19.88 0-36 16.12-36 36s16.12 36 36 36 36-16.12 36-36-16.12-36-36-36zm0 6c16.54 0 30 13.46 30 30s-13.46 30-30 30-30-13.46-30-30 13.46-30 30-30z" fill="white" opacity="0.9"/>
  <path d="M44 64h40" stroke="white" stroke-width="6" stroke-linecap="round"/>
  <path d="M52 52l-8 12 8 12M76 52l8 12-8 12" stroke="white" stroke-width="4" stroke-linecap="round" fill="none" opacity="0.6"/>
</svg>
